<?xml version="1.0" encoding="UTF-8"?>
<svg id="Capa_1" data-name="Capa 1" xmlns="http://www.w3.org/2000/svg" version="1.1" xmlns:xlink="http://www.w3.org/1999/xlink" viewBox="0 0 4196.6 3075.4">
  <defs>
    <style>
      .cls-1 {
        fill: #e9fbfd;
      }

      .cls-1, .cls-2, .cls-3 {
        stroke-width: 0px;
      }

      .cls-4 {
        stroke-width: 9px;
      }

      .cls-4, .cls-5, .cls-6, .cls-2, .cls-7, .cls-8 {
        fill: #8fbedc;
      }

      .cls-4, .cls-5, .cls-6, .cls-7, .cls-8 {
        stroke: #8fbedc;
        stroke-miterlimit: 10;
      }

      .cls-5 {
        stroke-width: 1.9px;
      }

      .cls-6 {
        stroke-width: 2.9px;
      }

      .cls-7 {
        stroke-width: 1.3px;
      }

      .cls-3 {
        fill: #c6e1ec;
      }

      .cls-8 {
        stroke-width: 1.6px;
      }
    </style>
  </defs>
  <rect class="cls-1" x="-7875.4" y="-10825.4" width="14866" height="7624.5"/>
  <rect class="cls-3" x="-352.2" y="1579.9" width="66" height="111"/>
  <rect class="cls-2" x="-352.2" y="2017.4" width="66" height="111"/>
  <line class="cls-4" x1="-306.9" y1="151.9" x2="-306.9" y2="1101.9"/>
  <line class="cls-4" x1="-1009.9" y1="1638.2" x2="-1009.9" y2="998.2"/>
  <rect class="cls-7" x="-3704.5" width="2098.8" height="3612.5"/>
  <path class="cls-7" d="M-3776.4,3565.7s290.1-164.1,713.6-73.1,679.8,0,679.8,0c0,0,188.5-72,523.1-8.5,334.6,63.5,374.8,48.9,374.8,48.9l-12.7,313-2278.6,40.4v-320.8Z"/>
  <rect class="cls-1" width="4236.1" height="3612.5"/>
  <ellipse class="cls-6" cx="2118.1" cy="151.9" rx="2185.2" ry="1634.8"/>
  <path class="cls-5" d="M-55.7,3021s550.5-180.2,1354.1-80.3c803.6,100,1289.8,0,1289.8,0,0,0,357.6-79.1,992.5-9.3,634.9,69.8,711.2,53.7,711.2,53.7l-24.1,343.7L-55.7,3373.2v-352.3Z"/>
  <image width="1000" height="850" transform="translate(-2839.6 41.4) scale(1.2)" xlink:href="D:\Diseño Web\lading page preentrega\img\img inicio4.jpg"/>
  <path class="cls-8" d="M-2658.5,1082.2c7.7-74,20.1-154.1,38.5-239.7,111.3-517.8-89.4-872.5-89.4-872.5h-392.2s19.7,1112.2,19.7,1112.2h423.4Z"/>
  <path class="cls-2" d="M-2952.4-9708c3.2,0,3.2-5,0-5s-3.2,5,0,5h0Z"/>
  <g>
    <path class="cls-2" d="M16231.3-4240.7v643.3c-543.7-301.3-1201.4-308.8-1818.8-236.3s-1231.1,217.1-1852.2,192.3c-786.6-31.4-1543.6-333.5-2330.3-363.1-1239.9-46.8-2443,584.7-3678.4,469-348.4-32.6-688.8-118.4-1037.2-150.9-360.1-33.5-724-26.4-1082.5,21.7-147,19.7-294,46.3-442.3,45.5-189-1.1-331.8-95.1-509.5-123.8-222.8-36-449.5-35.5-672.9-4.2-402.1,56.4-793.8,166.8-1197.8,211.7-1235.4,115.7-2438.5-515.8-3678.4-469-786.6,29.7-1543.7,331.7-2330.3,363.1-621.1,24.8-1234.8-119.8-1852.2-192.3-617.4-72.5-1275.1-65-1818.8,236.3v-643.3L-144.6-5207.8l4225.1,398.7,4225.1-398.7,7925.7,967.1Z"/>
    <path class="cls-2" d="M16206.3-4240.7v643.3c12.5-7.2,25.1-14.4,37.6-21.6-665.2-359.1-1439.6-301.1-2161.9-195.5-435.6,63.7-871,143-1312.3,150.2-426.1,7-843.6-71.4-1258.6-160.1-386.8-82.7-774.3-172-1169.9-199.3-384.9-26.5-770,14.9-1148.7,83.2-790.8,142.6-1571.2,405.8-2382.7,393.6-407.3-6.2-801.8-107.8-1204.6-155.1-414.5-48.6-833.2-36-1246,22.3-223.9,31.6-421.7,51.6-639.3-21.3-168-56.3-331-87.1-508.6-93.3-411.2-14.5-814.7,98.3-1215.5,173.6-416.2,78.2-823.9,90.5-1244,37.4-407.4-51.4-807.3-148.3-1207.5-238-376-84.2-754.6-163.8-1139.2-196.1-392-32.8-778.8,0-1164.8,70.9-402.3,74-798.8,178.3-1203.8,237.7-439.3,64.4-874.8,47-1313.8-10.9-766.5-101.2-1556.1-289-2323.5-89.6-168.3,43.7-329.2,107.5-482.2,190.1,12.5,7.2,25.1,14.4,37.6,21.6v-643.3l-25,25c568-69.3,1135.9-138.6,1703.9-207.9,1137.8-138.8,2275.6-277.7,3413.5-416.5,858.6-104.8,1717.3-209.5,2575.9-314.3,111.9-13.7,212.9-30.2,324.4-19.7,405.5,38.3,811.1,76.5,1216.6,114.8,953.1,89.9,1906.3,179.9,2859.4,269.8,181.1,17.1,373.6-24.5,553.6-41.5,526.6-49.7,1053.1-99.4,1579.7-149.1,534.2-50.4,1068.4-100.8,1602.6-151.2,183.7-17.3,383.1-60.1,567.8-48.9,219.9,13.4,441.5,53.9,660.1,80.5,441.1,53.8,882.2,107.7,1323.3,161.5,1151.8,140.5,2303.5,281.1,3455.3,421.6,781.6,95.4,1563.2,190.7,2344.8,286.1,40.2,4.9,80.4,9.8,120.6,14.7s31.6-46.1,0-50c-568-69.3-1135.9-138.6-1703.9-207.9-1137.8-138.8-2275.6-277.7-3413.5-416.5s-1717.3-209.5-2575.9-314.3c-111.9-13.7-212.9-30.2-324.4-19.7-405.5,38.3-811.1,76.5-1216.6,114.8-953.1,89.9-1906.3,179.9-2859.4,269.8-181.1,17.1-373.6-24.5-553.6-41.5-526.6-49.7-1053.1-99.4-1579.7-149.1-534.2-50.4-1068.4-100.8-1602.6-151.2-183.7-17.3-383.1-60.1-567.8-48.9-219.9,13.4-441.5,53.9-660.1,80.5-441.1,53.8-882.2,107.7-1323.3,161.5-1151.8,140.5-2303.5,281.1-3455.3,421.6-781.6,95.4-1563.2,190.7-2344.8,286.1-40.2,4.9-80.4,9.8-120.6,14.7-13.4,1.6-25,10.1-25,25v643.3c0,19.4,21.1,30.5,37.6,21.6,726.3-392,1574.2-274.5,2354.5-155.6,400.8,61.1,804.2,123.1,1210.8,117.5,398.1-5.5,789.6-83.7,1177.5-166.8,403.9-86.6,809.5-179.5,1223.6-197.8,402-17.7,802.4,37.2,1196,114.7,749.9,147.8,1496.1,383,2268,366.6,402.6-8.5,793.2-111.1,1187.2-184,215.5-39.9,431.8-70.5,651.5-62.9,208.5,7.2,385.7,64.4,583.2,119.5,162,45.2,325.2,28.3,489.7,5.8,221.2-30.2,441.3-56.3,664.8-61.8,434.7-10.7,852.3,59.6,1279.6,127.6,769.1,122.4,1502.1-16.8,2252.3-186.3,393.1-88.8,787.5-178.8,1189.1-219.9,408.9-41.8,811.6-16,1215.5,57.1,402.5,72.8,798.9,177.4,1203.7,238.4,397.2,59.9,791.7,59.1,1190.5,13.8,790.1-89.8,1594.7-307.6,2389-130.2,192.5,43,376.4,110.6,550,204.3,16.5,8.9,37.6-2.1,37.6-21.6v-643.3c0-32.2-50-32.2-50,0Z"/>
  </g>
  <rect class="cls-2" x="-8208.6" y="-10919" width="16128" height="6861.2"/>
</svg>