<?xml version="1.0" encoding="UTF-8"?>
<svg id="Capa_1" data-name="Capa 1" xmlns="http://www.w3.org/2000/svg" version="1.1" xmlns:xlink="http://www.w3.org/1999/xlink" viewBox="0 0 12660.7 14082.4">
  <defs>
    <style>
      .cls-1 {
        fill: #e9fbfd;
      }

      .cls-1, .cls-2, .cls-3 {
        stroke-width: 0px;
      }

      .cls-4 {
        stroke-width: 9px;
      }

      .cls-4, .cls-5, .cls-6, .cls-2, .cls-7, .cls-8 {
        fill: #8fbedc;
      }

      .cls-4, .cls-5, .cls-6, .cls-7, .cls-8 {
        stroke: #8fbedc;
        stroke-miterlimit: 10;
      }

      .cls-5 {
        stroke-width: 2.9px;
      }

      .cls-6 {
        stroke-width: 7.9px;
      }

      .cls-7 {
        stroke-width: 1.3px;
      }

      .cls-3 {
        fill: #c6e1ec;
      }

      .cls-8 {
        stroke-width: 1.6px;
      }
    </style>
  </defs>
  <rect class="cls-1" x="-3580.2" y="-1858" width="16331.3" height="16256.6"/>
  <rect class="cls-3" x="16243" y="10364.3" width="66" height="111"/>
  <rect class="cls-2" x="16243" y="10801.8" width="66" height="111"/>
  <line class="cls-4" x1="16288.4" y1="8936.3" x2="16288.4" y2="9886.3"/>
  <line class="cls-4" x1="15585.3" y1="10422.6" x2="15585.3" y2="9782.6"/>
  <rect class="cls-7" x="14535.9" y="8296.3" width="2098.8" height="3612.5"/>
  <path class="cls-7" d="M12660.7,14044.2s290.1-164.1,713.6-73.1,679.8,0,679.8,0c0,0,188.5-72,523.1-8.5s374.8,48.9,374.8,48.9l-12.7,313-2278.6,40.4v-320.8Z"/>
  <rect class="cls-1" x="16595.3" y="8784.4" width="4236.1" height="3612.5"/>
  <ellipse class="cls-5" cx="18713.3" cy="8936.3" rx="2185.2" ry="1634.8"/>
  <path class="cls-6" d="M-1220.5,14031.2s2185.2-827.6,5375.2-368.5c3190,459.1,5120,0,5120,0,0,0,1419.6-363,3939.7-42.7,2520.1,320.3,2823.2,246.8,2823.2,246.8l-95.7,1578.3-17162.4,203.6v-1617.5Z"/>
  <image width="1000" height="850" transform="translate(15233.2 8073.7) scale(1.2)" xlink:href="D:\Diseño Web\lading page preentrega\img\img inicio4.jpg"/>
  <path class="cls-8" d="M13936.8,9866.6c7.7-74,20.1-154.1,38.5-239.7,111.3-517.8-89.4-872.5-89.4-872.5h-392.2s19.7,1112.2,19.7,1112.2h423.4Z"/>
  <path class="cls-2" d="M1788.9,1244.9c3.2,0,3.2-5,0-5s-3.2,5,0,5h0Z"/>
  <g>
    <path class="cls-2" d="M20545.5,5036.1v710.8c-543.7-332.9-1201.4-341.2-1818.8-261.1-617.4,80.1-1231.1,239.9-1852.2,212.5-786.6-34.8-1543.6-368.5-2330.3-401.2-1239.9-51.7-2443,646.1-3678.4,518.2-348.4-36.1-688.8-130.9-1037.2-166.7-360.1-37-724-29.1-1082.5,24-147,21.8-294,51.2-442.3,50.2-189-1.2-331.8-105.1-509.5-136.8-222.8-39.8-449.5-39.3-672.9-4.6-402.1,62.3-793.8,184.3-1197.8,233.9-1235.4,127.9-2438.5-569.9-3678.4-518.2-786.6,32.8-1543.7,366.5-2330.3,401.2-621.1,27.4-1234.8-132.4-1852.2-212.5-617.4-80.1-1275.1-71.8-1818.8,261.1v-710.8l7925.7-1068.6,4225.1,440.5,4225.1-440.5,7925.7,1068.6Z"/>
    <path class="cls-2" d="M20519.2,5036.1v710.8c13.2-7.6,26.4-15.1,39.5-22.7-650.1-387.9-1421.2-334.7-2139.8-219.5-442.8,71-885.2,161.6-1335.1,169.8-427.4,7.7-844.5-79.2-1258.3-176.9-393.4-92.9-787.8-193.5-1192.4-221.8-384.3-26.9-769,21.3-1145.3,97.3-778.4,157-1545.5,440.9-2348.7,431.4-421.5-5-826.4-122.8-1242.4-174.3-415.4-51.4-833-33.4-1245.7,30.8-227.5,35.4-415.8,47.6-634-33.5-175-65-349.4-94.9-536.4-97.7-402.3-6-794.8,115.6-1185.4,195.9-423.8,87.2-837.5,95.9-1265.4,33.1-394-57.8-779.7-160.8-1165.7-256.4-367-90.9-736.8-177-1113.7-214.9-395.7-39.7-785.5-7-1174.5,70.8-410.1,82.1-812.5,200.2-1225.7,267.1-446.3,72.3-887.2,51.3-1332.9-14.9-755.8-112.2-1538.2-312.2-2295.8-98.7-172.9,48.7-336.9,120.5-491.1,212.5,13.2,7.6,26.4,15.1,39.5,22.7,0-94.4,0-188.8,0-283.1,0-127,16-265.6,0-391.6-6.3-49.5,9.7-15.7-17.7-10.9,4.3-.8,13.3-3.5,17.2-2.3,19.5,6.1,62.8-8.5,82.6-11.1,295.3-39.8,590.6-79.6,885.9-119.4,1104-148.9,2208.1-297.7,3312.1-446.6,1016.8-137.1,2033.5-274.2,3050.3-411.3,186.6-25.2,384.4-73.4,573.1-77.3-10,.2,22.4,3.2,33.1,4.4,50.3,5.6,100.7,10.5,151.1,15.8,192.9,20.1,385.9,40.2,578.8,60.3,1064.9,111,2129.7,222,3194.6,333.1,173.2,18.1,307.1,22.9,479.3,5,476.8-49.7,953.5-99.4,1430.3-149.1,581.4-60.6,1162.8-121.2,1744.2-181.8,202.5-21.1,405-42.2,607.5-63.3,61.5-6.4,181.9-25.3,220.7-24.6,172.2,3,353.3,47.6,523.6,70.6,432.1,58.3,864.1,116.5,1296.2,174.8,1170.9,157.9,2341.9,315.8,3512.8,473.6,822,110.8,1644,221.7,2466,332.5,42.2,5.7,84.5,11.4,126.7,17.1,33.1,4.5,47.4-46.2,14-50.7-569.3-76.8-1138.6-153.5-1707.9-230.3-1139.6-153.6-2279.1-307.3-3418.7-460.9-857.3-115.6-1714.6-231.2-2571.9-346.8-112.7-15.2-213.1-33.8-325.4-22-403,42-806,84-1209,126-956.1,99.7-1912.1,199.4-2868.2,299-179.1,18.7-372-27-549.8-45.5-527.8-55-1055.5-110-1583.3-165.1-535.4-55.8-1070.8-111.6-1606.2-167.5-182.3-19-384.8-67.2-568.2-53.1-215.5,16.6-432.1,58.3-646.2,87.1-444.4,59.9-888.7,119.8-1333.1,179.7-1149.4,155-2298.7,309.9-3448.1,464.9-786.5,106-1573,212.1-2359.4,318.1-40,5.4-80.1,10.8-120.1,16.2-11.2,1.5-19.3,14.9-19.3,25.3v710.8c0,19.8,22.4,32.9,39.5,22.7,718.6-428.8,1570.2-303.9,2353.5-172.1,407.9,68.6,819.3,138.5,1234.4,129.2,391.4-8.8,775.1-93.9,1154.6-183.8,410.2-97.1,822.5-201.9,1245.6-219.7,400.3-16.9,798.6,45.6,1188.5,131.2,744.9,163.4,1486.8,421,2258.7,401.6,397.9-10,781.9-120.7,1169.3-200.6,211.7-43.6,424.5-78.6,641.4-72.8,206.5,5.5,377.7,55.3,569.9,120.9s330.6,47,503.7,21.5c220.9-32.5,439.5-63.5,663-70.9,444.4-14.6,867.7,63.7,1302.9,140.3,380.5,66.9,757.1,77.6,1140.6,27.4,375.6-49.2,743.5-141.1,1110.4-232.7,383.4-95.7,768.3-193,1161.4-240.1,411.6-49.3,816.2-24.5,1222.5,55.4,403.1,79.3,798.4,194.7,1203.6,264.1,404.4,69.2,806.1,69.9,1212.8,18.9,792.6-99.5,1604.1-342.3,2401.3-140.7,189.7,48,369.1,122.5,537.1,222.7,17.2,10.2,39.5-2.9,39.5-22.7v-710.8c0-33.8-52.6-33.9-52.6,0Z"/>
  </g>
  <rect class="cls-2" x="-3469.6" y="-2497.9" width="16128" height="7581.2"/>
</svg>