<?xml version="1.0" encoding="UTF-8"?>
<svg id="Capa_1" data-name="Capa 1" xmlns="http://www.w3.org/2000/svg" version="1.1" viewBox="0 0 500 500">
  <defs>
    <style>
      .cls-1 {
        fill: #ba4d3c;
      }

      .cls-1, .cls-2, .cls-3, .cls-4, .cls-5, .cls-6, .cls-7, .cls-8, .cls-9 {
        stroke-width: 0px;
      }

      .cls-10, .cls-11 {
        opacity: .7;
      }

      .cls-10, .cls-11, .cls-7, .cls-9 {
        isolation: isolate;
      }

      .cls-2 {
        fill: #f5f5f5;
      }

      .cls-3 {
        fill: #175070;
      }

      .cls-11 {
        stroke: #fff;
        stroke-miterlimit: 10;
      }

      .cls-11, .cls-5, .cls-9 {
        fill: #8fbedc;
      }

      .cls-4 {
        fill: #ce7a63;
      }

      .cls-6 {
        fill: #263238;
      }

      .cls-7 {
        fill: #000;
        opacity: .2;
      }

      .cls-8 {
        fill: #407bff;
      }

      .cls-9 {
        opacity: .6;
      }
    </style>
  </defs>
  <g id="freepik--Shadow--inject-157">
    <ellipse id="freepik--path--inject-157" class="cls-2" cx="250" cy="416.2" rx="193.9" ry="11.3"/>
  </g>
  <g id="freepik--Carpet--inject-157" class="cls-10">
    <polygon class="cls-5" points="355 420 145 420 152.1 411.3 347.9 411.3 355 420"/>
    <polygon class="cls-9" points="355 420 145 420 152.1 411.3 347.9 411.3 355 420"/>
  </g>
  <path class="cls-6" d="M189.4,336.8c26.1-.7,43.1,19.2,43.1,19.2-2.6,8.1-4.2,14.2-4.2,14.2-14.3-2.7-30.5-3.8-43.9-7.3-12.1-3.1-13.3-19.5-12-26.3s8.2-8.5,14.9-10.7c7.7-2.5,22.4-2.8,32.9-2.8,11.1,0,25.6,1,33.2,2.7,0,0,16-.7,27.9-.5,6.9-1.2,2.8,10.1-8.3,19.8-11,9.8-25.8,14.1-40.4,11.7h0"/>
  <path class="cls-6" d="M315,336.8c-26.1-.7-49.3,19.2-49.3,19.2,2.6,8.1,4.2,14.2,4.2,14.2,14.3-2.7,36.8-3.8,50.1-7.3,12.1-3.1,13.3-19.5,12-26.3s-8.2-8.5-14.9-10.7c-7.7-2.5-22.4-2.8-32.9-2.8-11.1,0-25.6,1-33.2,2.7,0,0-16-.7-27.9-.5-6.9-1.2-2.8,10.1,8.2,19.8,11,9.7,25.8,14.1,40.3,11.7h0"/>
  <path class="cls-4" d="M232.6,266c-2.3,7.7-4.6,15.4-7.1,23-1.2,3.8-2.5,7.6-3.8,11.4s-2.6,7.6-4.1,11.4l-.2.5-.2.6c-.2.4-.3.7-.5,1.1-.4.7-.8,1.3-1.2,1.9-.8,1.1-1.7,2.2-2.7,3.1-1.8,1.6-3.7,3.1-5.8,4.3-3.7,2.2-7.7,4.1-11.8,5.5-7.8,2.8-15.9,4.9-24.1,6.1l-1.5-6.5c3.6-1.3,7.4-2.7,11-4.2s7.2-3,10.6-4.7c3.3-1.6,6.5-3.5,9.5-5.6,2.8-2,5.1-4.5,5.3-6l6.7-22.9c2.3-7.7,4.6-15.3,7-23l12.9,4Z"/>
  <path class="cls-4" d="M172.2,328.8l-12.2-3.1,5.8,11.7s8.3.4,11-4.2l-4.6-4.4Z"/>
  <path class="cls-6" d="M258.6,182.6c-4.4-3.2-11.6-5.8-14.5-1s-5.4,15-10.2,17.5-10.6,12.3-7.4,21-9.3,6.3-10,19.5,18.1,19.8,29.9,13.3,20.2-40.4,19.4-53.8-7.2-16.5-7.2-16.5Z"/>
  <path class="cls-6" d="M253.1,182.1s6.4-9.8,18.2-4.7c13.8,5.9,9.5,12.2,12,25.6s18,15.8,17.2,34.4c-1.2,31.7-29.2,25.8-37,17.4s.8-39.3.8-39.3l-11.3-33.3Z"/>
  <polygon class="cls-4" points="150.1 330.3 155.5 339.9 165.8 337.6 160 325.8 150.1 330.3"/>
  <path class="cls-3" d="M224.1,247.9c-5.3,1.4-9,23.2-9,23.2l14.6,10s14-22.1,10-27.9c-4.3-6.1-7.9-7.3-15.6-5.3Z"/>
  <path class="cls-7" d="M223.6,255.8l11.4,2.6,1.1,11.1c-1.9,3.9-4.1,7.7-6.4,11.4l-8.9-6c.4-5.1,1.3-15.7,2.8-19.2Z"/>
  <path class="cls-3" d="M224.1,247.9s-6.1,2.1,6.2,77.8h52.4c-.9-21.3-.9-34.5,9.3-78.2-7.3-1.5-14.8-2.5-22.2-2.9-8.8-.4-16-.7-23.8,0-10.2.9-21.8,3.3-21.8,3.3Z"/>
  <path class="cls-7" d="M279.6,267.8l6.8,5.8c-1.5,7.6-2.4,14-3,19.7-1.3-5.7-4.5-21.1-3.8-25.4Z"/>
  <path class="cls-4" d="M267.3,217.8c-1.5,7.6-3,21.7,2.4,26.8,0,0-5,11.5-18.2,11.5s-5.5-11.5-5.5-11.5c8.5-2,8.3-8.4,6.8-14.3l14.6-12.5Z"/>
  <path class="cls-4" d="M269.7,244.6c-8.8-.4-16-.7-23.8,0-3.7.3-7.5.9-10.9,1.4-2.3,4.1-11.2,22.5,10.8,22.5s32.7-20.2,33.9-23c-3.1-.4-6.5-.7-10-.9Z"/>
  <path class="cls-7" d="M261.4,222.9l-8.6,7.4c.4,1.4.6,2.8.7,4.2,3.3-.5,7.7-4.1,8.1-7.5.2-1.4.1-2.8-.2-4.1Z"/>
  <path class="cls-4" d="M277.4,203.3c-2.4,12.6-3.2,17.9-10.4,23.6-10.9,8.5-25.8,2.8-27.2-10.2-1.2-11.7,2.9-30.3,16-33.8,9.3-2.5,18.9,3.1,21.3,12.4.7,2.6.8,5.3.2,8Z"/>
  <path class="cls-6" d="M255,181.6c-4.5,2.5-1.5,7,6.6,10.2,8.1,3.2,8.6,3.8,7.3,10.3s10.5,12.7,10.7,5.9,2.6-19.7-3.8-23.3-16.1-5.7-20.8-3.1Z"/>
  <path class="cls-6" d="M254.3,184.8c-4,1.3-13.1,11.2-12.4,7.9s2.4-7.8,7.2-9.4c2.3-.9,4.7-1.5,7.1-1.7l-1.8,3.2Z"/>
  <path class="cls-4" d="M279.8,213.9c-1.2,2.2-3.1,3.8-5.5,4.6-3.1,1-4.7-1.7-3.8-4.6.8-2.6,3.3-6.4,6.4-6.1s4.3,3.5,2.9,6.1Z"/>
  <path class="cls-4" d="M229.7,368.8l4.8-13.7c.2-.5,2.2.8,2.8.9,0,0,7.5-1,10.5-.2s2.9,2.8,2.3,4.8c-1.3,4.7-3.3,5.6-4.6,11.9-.8,3.8-1.5,7.4-5.7,11-4,3.5-7.8,3.3-6.3-1,3.8-10.2,2-8.6-.4-12.4-.4-.6-3.7-.6-3.4-1.4Z"/>
  <path class="cls-4" d="M267.3,368.8l-4.8-13.7c-.2-.5-2.2.8-2.8.9,0,0-7.5-1-10.5-.2s-2.9,2.8-2.3,4.8c1.3,4.7,3.3,5.6,4.6,11.9.8,3.8,1.5,7.4,5.7,11,4,3.5,7.8,3.3,6.3-1-3.8-10.2-2-8.6.4-12.4.4-.6,3.7-.6,3.4-1.4Z"/>
  <polygon class="cls-3" points="231.3 372.1 236.2 354 229.8 351.3 220.8 370.8 231.3 372.1"/>
  <polygon class="cls-3" points="266 372.5 258.5 354.1 264.3 351.7 276.2 369.6 266 372.5"/>
  <path class="cls-1" d="M248.7,204.4s-2.3,4.2-4.5,6.1c1.2,1.4,3.6,1.2,3.6,1.2l.9-7.3Z"/>
  <path class="cls-6" d="M250.9,217h0c2.3.2,4.5-.5,6.3-1.9,0,0,0-.2,0-.3,0,0-.2,0-.3,0-1.7,1.3-3.8,2-6,1.8-.1,0-.2,0-.2.2,0,0,0,.1,0,.2h0Z"/>
  <path class="cls-6" d="M262.3,199.4c.1,0,.3,0,.4,0,.2-.1.2-.4.1-.5,0,0,0,0,0,0-1-1.6-2.7-2.7-4.5-2.8-.2,0-.4.1-.4.3s.1.4.3.4c0,0,0,0,.1,0,1.6.2,3.1,1.1,3.9,2.5,0,0,0,0,.2.1Z"/>
  <path class="cls-6" d="M253.6,202.9c-.2,0-.4,0-.5.3,0,.1,0,.3.1.4,1.3,1.4,3.2,2,5.1,1.7.2,0,.3-.3.3-.5,0-.2-.3-.3-.5-.3-1.6.2-3.2-.3-4.4-1.5,0,0-.1,0-.2-.1Z"/>
  <path class="cls-6" d="M239.9,201.5c-.1,0-.3,0-.4.1-.2.2-.2.4,0,.6,1.3,1.4,3.2,2,5.1,1.7.2,0,.3-.3.3-.5,0-.2-.3-.3-.5-.3-1.6.2-3.2-.3-4.4-1.5,0,0-.1,0-.2,0Z"/>
  <path class="cls-6" d="M241,195.6c.1,0,.3,0,.4,0,1.3-1.1,2.9-1.4,4.5-1,.2,0,.4,0,.5-.2,0-.2,0-.4-.2-.5,0,0,0,0,0,0-1.8-.5-3.8-.1-5.3,1.1-.2.1-.2.4,0,.5h0c0,0,0,0,.2.1Z"/>
  <path class="cls-8" d="M283.4,322.6l.4,4.7c.2.4-.2.7-.9.7h-53c-.5,0-.9-.2-.9-.5l-.5-4.7c0-.3.4-.6.9-.6h53c.3,0,.7.1.9.4Z"/>
  <path class="cls-11" d="M283.4,322.6l.4,4.7c.2.4-.2.7-.9.7h-53c-.5,0-.9-.2-.9-.5l-.5-4.7c0-.3.4-.6.9-.6h53c.3,0,.7.1.9.4Z"/>
  <path class="cls-6" d="M276.3,328.5h1.4c.3,0,.5-.1.5-.3l-.7-6.1c0-.2-.3-.3-.5-.3h-1.4c-.3,0-.5.1-.5.3l.7,6.1c0,.2.3.3.5.3Z"/>
  <path class="cls-6" d="M234,328.5h1.4c.3,0,.5-.1.5-.3l-.7-6.1c0-.2-.3-.3-.6-.3h-1.4c-.3,0-.5.1-.5.3l.7,6.1c0,.2.3.3.6.3Z"/>
  <path class="cls-6" d="M255.1,328.5h1.4c.3,0,.5-.1.5-.3l-.7-6.1c0-.2-.3-.3-.6-.3h-1.4c-.3,0-.5.1-.5.3l.7,6.1c0,.2.3.3.5.3Z"/>
  <path class="cls-4" d="M296.6,263l4.3,23.1c.7,3.8,1.5,7.7,2.2,11.5.4,1.9.8,3.8,1.2,5.6l.7,2.7.6,2.3c.4,1,1,2,1.9,2.8,1.1,1.2,2.4,2.2,3.7,3.1,3,2.1,6.2,3.9,9.5,5.5,3.4,1.7,6.9,3.2,10.5,4.7s7.3,2.8,10.8,4.1l-1.5,6.5c-8.1-1.2-16-3.2-23.7-6-4-1.4-7.9-3.2-11.6-5.3-2-1.2-3.9-2.6-5.7-4.1-2.2-1.9-3.9-4.2-5-6.8l-.2-.6v-.4c-.1,0-.4-.8-.4-.8l-.5-1.5-.9-3c-.6-2-1.1-4-1.6-5.9-1-3.9-2-7.8-2.8-11.7-1.7-7.8-3.2-15.6-4.5-23.5l13.2-2.2Z"/>
  <path class="cls-3" d="M291.9,247.5c5.2,1.6,11.8,18.5,11.8,18.5l-20.4,14.6s-7.6-13.9-5.4-20.7c2.3-7.1,8-14.2,14-12.3Z"/>
  <path class="cls-4" d="M339.4,328.8l12.2-3.1-5.8,11.7s-8.3.4-11-4.2l4.6-4.4Z"/>
  <polygon class="cls-4" points="361.5 330.3 356 339.9 345.8 337.6 351.6 325.8 361.5 330.3"/>
</svg>