<?xml version="1.0" encoding="UTF-8"?>
<svg id="Capa_1" data-name="Capa 1" xmlns="http://www.w3.org/2000/svg" version="1.1" xmlns:xlink="http://www.w3.org/1999/xlink" viewBox="0 0 500 500">
  <defs>
    <style>
      .cls-1 {
        opacity: .7;
      }

      .cls-1, .cls-2, .cls-3, .cls-4, .cls-5, .cls-6, .cls-7, .cls-8, .cls-9, .cls-10, .cls-11, .cls-12, .cls-13, .cls-14, .cls-15, .cls-16, .cls-17 {
        stroke-width: 0px;
      }

      .cls-1, .cls-2, .cls-8, .cls-9, .cls-11, .cls-12, .cls-14, .cls-17 {
        isolation: isolate;
      }

      .cls-1, .cls-9, .cls-12, .cls-15 {
        fill: #fff;
      }

      .cls-2 {
        opacity: .3;
      }

      .cls-2, .cls-8, .cls-13 {
        fill: #407bff;
      }

      .cls-3 {
        fill: #de5753;
      }

      .cls-4 {
        fill: #e4897b;
      }

      .cls-5 {
        fill: #f5f5f5;
      }

      .cls-6 {
        fill: none;
      }

      .cls-7 {
        fill: #175070;
      }

      .cls-8 {
        opacity: .6;
      }

      .cls-18 {
        stroke: #fff;
        stroke-miterlimit: 10;
      }

      .cls-18, .cls-14 {
        fill: #8fbedc;
      }

      .cls-9 {
        opacity: .5;
      }

      .cls-10 {
        fill: #263238;
      }

      .cls-11 {
        opacity: .2;
      }

      .cls-11, .cls-17 {
        fill: #000;
      }

      .cls-12 {
        opacity: .8;
      }

      .cls-19 {
        clip-path: url(#clippath);
      }

      .cls-16 {
        fill: #ce6f64;
      }

      .cls-20 {
        opacity: .5;
      }

      .cls-17 {
        opacity: .4;
      }
    </style>
    <clipPath id="clippath">
      <rect class="cls-6" x="177.2" y="129.8" width="144.3" height="261.9"/>
    </clipPath>
  </defs>
  <g id="freepik--Shadow--inject-288">
    <ellipse class="cls-5" cx="250" cy="416.2" rx="193.9" ry="11.3"/>
  </g>
  <rect class="cls-13" x="177.5" y="111.4" width="144.3" height="304.8" rx="14.6" ry="14.6"/>
  <rect class="cls-1" x="177.5" y="111.4" width="144.3" height="304.8" rx="14.6" ry="14.6"/>
  <rect class="cls-13" x="181.4" y="110.9" width="144.3" height="304.8" rx="14.6" ry="14.6"/>
  <rect class="cls-14" x="181.4" y="110.9" width="144.3" height="304.8" rx="14.6" ry="14.6"/>
  <path class="cls-13" d="M259.2,402.3c0,3.6-2.9,6.5-6.5,6.5s-6.5-2.9-6.5-6.5c0-3.6,2.9-6.5,6.5-6.5h0c3.6,0,6.5,2.9,6.5,6.5Z"/>
  <path class="cls-17" d="M259.2,402.3c0,3.6-2.9,6.5-6.5,6.5s-6.5-2.9-6.5-6.5c0-3.6,2.9-6.5,6.5-6.5h0c3.6,0,6.5,2.9,6.5,6.5Z"/>
  <polygon class="cls-13" points="324.6 392.8 181 392.8 181 130.8 325.6 130.8 324.6 392.8"/>
  <polygon class="cls-12" points="325.8 392.6 180.9 392.8 180.9 130.9 325.7 130.7 325.8 392.6"/>
  <rect class="cls-15" x="184.9" y="141.7" width="119.5" height="79.3" rx="9.9" ry="9.9"/>
  <circle class="cls-2" cx="203.3" cy="160" r="13.2"/>
  <path class="cls-15" d="M214.2,160c0,1.8-.4,3.6-1.3,5.2-2.9,5.3-9.5,7.3-14.8,4.4-5.3-2.9-7.3-9.5-4.4-14.8,2.9-5.3,9.5-7.3,14.8-4.4,3.5,1.9,5.7,5.6,5.7,9.6Z"/>
  <path class="cls-2" d="M212.9,165.2c-2.9,5.3-9.5,7.3-14.8,4.4-1.9-1-3.4-2.5-4.4-4.4,5.8-3.9,13.4-3.9,19.2,0Z"/>
  <circle class="cls-2" cx="203.3" cy="156.3" r="4.9"/>
  <rect class="cls-15" x="184.9" y="228.3" width="119.5" height="27.8" rx="7.3" ry="7.3"/>
  <path class="cls-8" d="M324.8,258.8l14.1,38.9c.8,2.1-.3,4.5-2.5,5.2l-74.1,26.9c-2.1.8-4.5-.3-5.2-2.4l-14.1-39c-.8-2.1.3-4.5,2.4-5.2l74.1-26.9c2.1-.8,4.5.3,5.2,2.5h0Z"/>
  <path class="cls-13" d="M322.5,256.4l-21.2,34.9c-4,6.7-12.2,9.6-19.5,7.1l-38.6-13.2c.5-.9,1.3-1.6,2.2-2l74.1-26.9c1-.3,2-.3,3,.1Z"/>
  <path class="cls-9" d="M322.5,256.4l-21.2,34.9c-4,6.7-12.2,9.6-19.5,7.1l-38.6-13.2c.5-.9,1.3-1.6,2.2-2l74.1-26.9c1-.3,2-.3,3,.1Z"/>
  <path class="cls-8" d="M301.5,325.7l-.7,35.1c0,1.9-1.6,3.4-3.5,3.4l-66.8-1.3c-1.9,0-3.4-1.6-3.4-3.5,0,0,0,0,0,0l.7-35.1c0-1,.4-1.9,1.1-2.5.7-.6,1.5-.9,2.4-.9l66.8,1.3c1.9,0,3.4,1.6,3.4,3.5h0Z"/>
  <path class="cls-13" d="M300.5,323.2l-27.4,21.1c-5.2,4-12.6,3.9-17.6-.3l-26.5-22.2c.7-.6,1.5-.9,2.4-.9l66.8,1.3c.9,0,1.7.4,2.3,1Z"/>
  <path class="cls-9" d="M300.5,323.2l-27.4,21.1c-5.2,4-12.6,3.9-17.6-.3l-26.5-22.2c.7-.6,1.5-.9,2.4-.9l66.8,1.3c.9,0,1.7.4,2.3,1Z"/>
  <path class="cls-13" d="M234.1,119.2c0-1.3,1-2.3,2.3-2.3,1.3,0,2.3,1,2.3,2.3,0,1.3-1,2.3-2.3,2.3-1.3,0-2.3-1-2.3-2.3s0,0,0,0Z"/>
  <path class="cls-13" d="M244.4,116.9h19.1c1.3,0,2.3,1,2.3,2.3h0c0,1.3-1,2.3-2.3,2.3h-19.1c-1.3,0-2.3-1-2.3-2.3h0c0-1.3,1-2.3,2.3-2.3Z"/>
  <path class="cls-17" d="M234.1,119.2c0-1.3,1-2.3,2.3-2.3,1.3,0,2.3,1,2.3,2.3,0,1.3-1,2.3-2.3,2.3-1.3,0-2.3-1-2.3-2.3s0,0,0,0Z"/>
  <path class="cls-17" d="M244.4,116.9h19.1c1.3,0,2.3,1,2.3,2.3h0c0,1.3-1,2.3-2.3,2.3h-19.1c-1.3,0-2.3-1-2.3-2.3h0c0-1.3,1-2.3,2.3-2.3Z"/>
  <rect class="cls-13" x="312.4" y="163.2" width="17.5" height="37.1" rx="4" ry="4"/>
  <rect class="cls-12" x="312.4" y="163.2" width="17.5" height="37.1" rx="4" ry="4"/>
  <rect class="cls-13" x="312.4" y="210.9" width="17.5" height="20.9" rx="3" ry="3"/>
  <rect class="cls-12" x="312.4" y="210.9" width="17.5" height="20.9" rx="3" ry="3"/>
  <g class="cls-19">
    <g>
      <rect class="cls-6" x="177.2" y="129.8" width="144.3" height="261.9"/>
      <polygon class="cls-4" points="199 385.4 206.3 386.1 214 368.6 206.6 367.9 199 385.4"/>
      <polygon class="cls-4" points="124.4 331.9 128.6 338.2 144.6 330.5 140.4 324.2 124.4 331.9"/>
      <polygon class="cls-16" points="214 368.6 210 377.7 202.4 377.7 206.6 367.9 214 368.6"/>
      <polygon class="cls-16" points="140.4 324.2 144.6 330.5 136.3 334.5 132.1 328.1 140.4 324.2"/>
      <path class="cls-4" d="M281.6,206.4l.2.5.3.6c.2.4.4.9.7,1.3.5.9,1,1.7,1.5,2.5,1.1,1.7,2.2,3.3,3.5,4.8,1.3,1.5,2.6,3,4.1,4.3.8.7,1.5,1.3,2.3,2l1.2.9.3.2h0c-.1,0-.3,0-.4,0-.3,0-.6,0-.9.1-.2,0-.3.1-.4.3,0,.1.1,0,.3-.3.4-.7.7-1.5.9-2.3.5-1.9,1-3.9,1.3-5.9.3-2.1.6-4.2.8-6.3s.5-4.3.6-6.4h3.9c.2,2.2.3,4.3.4,6.6s0,4.4,0,6.7c0,2.3-.4,4.6-.8,6.9-.3,1.3-.7,2.6-1.2,3.8-.4.9-.9,1.6-1.6,2.3-.5.5-1.1.9-1.8,1.1-.8.3-1.6.4-2.4.3-.7,0-1.3-.3-1.9-.6-.2-.1-.5-.3-.7-.4l-.4-.2-1.5-1c-1-.7-1.9-1.4-2.8-2.1-1.8-1.5-3.5-3.1-5-4.9-1.6-1.8-3-3.6-4.3-5.6-.6-1-1.2-2-1.8-3-.3-.5-.5-1.1-.8-1.6l-.4-.9c-.1-.3-.2-.5-.4-.9l7.2-2.8Z"/>
      <polygon class="cls-5" points="285 211.6 278.3 220.9 281.1 223.6 288.2 215 285 211.6"/>
      <path class="cls-13" d="M274.5,199.4c7.6,2,12.8,12.6,12.8,12.6l-8.7,12.2s-10.5-13.2-10.3-17.4c.3-4.4,1.6-8.7,6.2-7.5Z"/>
      <path class="cls-1" d="M274.5,199.4c7.6,2,12.8,12.6,12.8,12.6l-8.7,12.2s-10.5-13.2-10.3-17.4c.3-4.4,1.6-8.7,6.2-7.5Z"/>
      <path class="cls-13" d="M281,203.3s2.5,2.9-26.3,37.8l-26.7-15.6c6.8-10.6,10.7-17.3,18.6-42.6,4.2,1.4,8.3,3.1,12.2,5.1,4.2,2.1,8.2,4.5,12.1,7.1,4.9,3.5,10.1,8.2,10.1,8.2Z"/>
      <path class="cls-1" d="M281,203.3s2.5,2.9-26.3,37.8l-26.7-15.6c6.8-10.6,10.7-17.3,18.6-42.6,4.2,1.4,8.3,3.1,12.2,5.1,4.2,2.1,8.2,4.5,12.1,7.1,4.9,3.5,10.1,8.2,10.1,8.2Z"/>
      <path class="cls-5" d="M277.5,200.3c-1.9-1.6-4.3-3.5-6.6-5.2-3.9-2.6-7.9-5-12.1-7.1-2.4-1.2-4.8-2.3-6.8-3.1-.3.6,0,2.2.9,4.7,3.8,4.9,12.8,12.2,20.2,13.7,3.5-.5,4.5-1.6,4.4-3Z"/>
      <path class="cls-5" d="M252.9,189.6c2.2,5,5.2,9.6,8.9,13.7,3.8.4,7.6.4,11.4,0-7.4-1.5-16.4-8.8-20.2-13.7Z"/>
      <path class="cls-13" d="M254.7,241.1s.4,68.5-11.7,88.3c-12.6,20.6-29.1,45.7-29.1,45.7l-14.3-.7s16.6-37.1,22.9-54.4c8.6-23.8,12.6-90.4,12.6-90.4l19.5,11.4Z"/>
      <path class="cls-17" d="M254.7,241.1s.4,68.5-11.7,88.3c-12.6,20.6-29.1,45.7-29.1,45.7l-14.3-.7s16.6-37.1,22.9-54.4c8.6-23.8,12.6-90.4,12.6-90.4l19.5,11.4Z"/>
      <path class="cls-11" d="M239.5,243c-2.3,2-4.3,4.3-5.9,6.9-.4,5.1-1,10.8-1.6,16.8,4.4-5.9,7.8-16.3,7.5-23.7Z"/>
      <path class="cls-13" d="M247.6,237s-30.2,42.9-49,66c-15.2,18.6-59.2,32-59.2,32l-5.4-9s35-19.5,45.4-32.2c33.4-40.4,33-61.4,48.5-68.3l19.6,11.4Z"/>
      <path class="cls-17" d="M247.6,237s-30.2,42.9-49,66c-15.2,18.6-59.2,32-59.2,32l-5.4-9s35-19.5,45.4-32.2c33.4-40.4,33-61.4,48.5-68.3l19.6,11.4Z"/>
      <path class="cls-4" d="M298,203.8l-2-8,7.6,2.2s-.2,5.4-2.9,7.1l-2.8-1.4Z"/>
      <polygon class="cls-4" points="298.4 189.4 303.8 192.1 303.7 198 296 195.8 298.4 189.4"/>
      <path class="cls-4" d="M202.6,192.3l-7-4.3,7-3.7s3.6,4,2.9,7.1l-2.9.9Z"/>
      <polygon class="cls-4" points="192.8 181.7 198.5 179.9 202.6 184.3 195.6 188 192.8 181.7"/>
      <path class="cls-10" d="M130.3,337.5l-2.5-8.2c0-.3-.4-.5-.7-.4l-6.8,1c-.7.1-1.1.8-1,1.4,0,0,0,0,0,.1.9,2.8,1.5,4.2,2.6,7.8.7,2.2,1.8,7.2,2.8,10.3s4,2.3,3.9.9c-.5-6.1.5-9.2,1.5-11.6.2-.4.2-.9,0-1.3Z"/>
      <path class="cls-10" d="M207.3,383.9h-9c-.3,0-.6.2-.7.5l-2,7.1c-.2.6.2,1.2.8,1.4.1,0,.2,0,.3,0,3.2,0,4.7-.2,8.7-.2s8.8.2,12.1.2,4-3.3,2.6-3.6c-6.1-1.4-9.6-3.2-11.5-5-.3-.3-.8-.5-1.3-.5Z"/>
      <path class="cls-10" d="M228.5,223.7l-2.6,1.7c-.2.1,0,.4.2.6l28,16.4c.2.1.5.1.6,0l1.6-2.2c.1-.2,0-.4-.3-.6l-27-15.8c-.2-.1-.4-.2-.6,0Z"/>
      <path class="cls-4" d="M244.4,194.3c-1.9,1.5-3.7,2.7-5.6,4s-3.9,2.4-5.9,3.4c-4,2.2-8.2,4-12.6,5.3-.5.2-1.1.3-1.7.5s-1.1.3-1.7.4c-1.4.3-2.9.4-4.4.2-1.5-.2-3-.7-4.4-1.5-1.2-.8-2.3-1.8-3.2-2.9-1.5-2.1-2.5-4.4-3.1-6.9-.3-1.1-.5-2.3-.6-3.5-.2-1.2-.2-2.3-.2-3.5l3.8-.3c.5,2,1.1,3.9,1.9,5.7.7,1.7,1.7,3.2,2.9,4.6.9,1,2.2,1.6,3.5,1.7.7,0,1.4-.1,2.1-.3.9-.3,1.9-.6,2.8-.9,3.8-1.4,7.6-3.2,11.1-5.3,1.8-1,3.6-2.1,5.3-3.3s3.5-2.4,5-3.5l4.9,6.1Z"/>
      <polygon class="cls-5" points="232 191.7 235.5 202.2 238.7 200.2 235.7 189.9 232 191.7"/>
      <path class="cls-13" d="M131.1,341.8c-.2,0-.3,0-.5-.1-.8-.5-1.1-2.3-1.1-3.3,0,0,0-.1.1-.2,0,0,.1,0,.2,0,.2.2,2.3,2,2.2,2.9,0,.2-.2.4-.4.5-.2,0-.3.1-.5.2ZM129.9,338.8c.1,1.4.5,2.3.9,2.6.2.1.5.1.7,0,.1,0,.2-.1.2-.2,0-.5-.9-1.6-1.7-2.3h0Z"/>
      <path class="cls-13" d="M132.4,339.7c-1,0-2-.5-2.8-1.1,0,0,0-.1,0-.2,0,0,0-.1.1-.1,0,0,2.2-.7,3.1,0,.2.1.4.4.4.7,0,.3,0,.6-.3.7-.2,0-.4.1-.6.1ZM130.1,338.5c.8.5,2.2,1,2.7.7,0,0,.2-.1.1-.4,0-.2-.1-.3-.3-.4-.8-.3-1.7-.2-2.5,0Z"/>
      <path class="cls-13" d="M211.3,385.4c-.8,0-1.7-.1-2.5-.3,0,0-.1,0-.1-.2,0,0,0-.1.1-.2.6-.3,3.7-1.7,4.5-1.1.2.1.2.3.2.5,0,.3-.2.7-.4.9-.5.3-1.2.5-1.8.4ZM209.5,384.8c1,.2,2.7.4,3.4-.2.2-.1.3-.4.3-.6,0,0,0-.1,0-.2-.4-.3-2.3.3-3.6.9Z"/>
      <path class="cls-13" d="M208.9,385s0,0-.1,0c0,0,0-.1,0-.2,0-.1.8-3.4,2.6-3.2.5,0,.6.3.6.5.1.9-1.9,2.5-3,2.9h0ZM211.1,382c-1.1,0-1.7,1.8-2,2.5,1-.6,2.5-1.9,2.4-2.4,0,0-.1-.1-.3-.2h0Z"/>
      <path class="cls-13" d="M230.4,228.8l-.7-.4c-.1,0-.2-.2-.1-.3l2.2-2.9c0,0,.2,0,.4,0l.7.4c.1,0,.2.2.1.3l-2.2,2.9c0,0-.2,0-.4,0Z"/>
      <path class="cls-13" d="M251.9,241.4l-.7-.4c-.1,0-.2-.2-.1-.3l2.2-2.9c0,0,.2,0,.4,0l.7.4c.1,0,.2.2.1.3l-2.1,2.9c0,0-.2,0-.4,0Z"/>
      <path class="cls-13" d="M241.2,235.1l-.7-.4c-.1,0-.2-.2-.1-.3l2.1-2.9c0,0,.2,0,.4,0l.7.4c.1,0,.2.2.1.3l-2.2,2.9c0,0-.2,0-.4,0Z"/>
      <path class="cls-17" d="M230.4,228.8l-.7-.4c-.1,0-.2-.2-.1-.3l2.2-2.9c0,0,.2,0,.4,0l.7.4c.1,0,.2.2.1.3l-2.2,2.9c0,0-.2,0-.4,0Z"/>
      <path class="cls-17" d="M251.9,241.4l-.7-.4c-.1,0-.2-.2-.1-.3l2.2-2.9c0,0,.2,0,.4,0l.7.4c.1,0,.2.2.1.3l-2.1,2.9c0,0-.2,0-.4,0Z"/>
      <path class="cls-17" d="M241.2,235.1l-.7-.4c-.1,0-.2-.2-.1-.3l2.1-2.9c0,0,.2,0,.4,0l.7.4c.1,0,.2.2.1.3l-2.2,2.9c0,0-.2,0-.4,0Z"/>
      <path class="cls-10" d="M261.2,190c0-6-2-29.6,7.8-31.6,3.1-3.3,18.5-3.6,20.9,4.7,3.1,10.9-1.5,37.7-1.5,37.7l-27.2-10.8"/>
      <path class="cls-10" d="M290.5,200.8h0c-.1,0-.2-.1-.2-.3,0,0,0,0,0,0,0-.3,3.2-27-.3-37.6-1-2.9-3.8-4.9-7.9-5.7-5.4-1.1-11.2.3-12.8,2.1,0,0-.3,0-.4,0,0-.1,0-.3,0-.4,1.9-2.2,8.2-3.3,13.2-2.3,4.3.8,7.2,3,8.3,6.1,3.6,10.7.4,37.5.4,37.8,0,.1-.1.3-.3.3,0,0,0,0,0,0Z"/>
      <path class="cls-4" d="M268,175.1c-1.5,4.3-4.9,11.9-9.2,12.9,0,0-1.2,4.6,6,8.8,8,4.7,6.1-1.7,6.1-1.7-3.7-3.6-1.8-6.7.8-9.3l-3.7-10.7Z"/>
      <path class="cls-16" d="M269.5,179.4l2.2,6.3c-.6.6-1.1,1.2-1.6,1.9-1.5-1.2-3.1-4.2-2.3-6,.4-.9,1-1.6,1.7-2.3Z"/>
      <path class="cls-4" d="M268.1,166.4c-2.1,7.3-3.1,10.3-.8,15.2,3.5,7.4,12.8,8.4,17,1.9,3.8-5.9,6.5-16.8.6-22-4.3-3.8-10.8-3.4-14.5.9-1,1.2-1.8,2.6-2.2,4.1Z"/>
      <path class="cls-10" d="M265.9,171c5.2,1.9,17.3-4.5,20.6-8.4.4-6.1-13.8-3.7-13.8-3.7,0,0-7.6-2.3-6.9,12.1Z"/>
      <path class="cls-4" d="M264.7,172.4c-.3,1.4,0,2.9.7,4.2,1,1.6,2.8,1,3.6-.6.7-1.5,1-4.1-.5-5.2-1.1-.8-2.7-.4-3.4.7-.2.3-.3.6-.4,1Z"/>
      <path class="cls-10" d="M278.1,172.2c-.2.6,0,1.2.3,1.3s.9-.2,1.1-.8,0-1.1-.3-1.3-.8.2-1,.8Z"/>
      <path class="cls-10" d="M284.7,174.5c-.2.6,0,1.1.3,1.3s.9-.2,1-.8,0-1.2-.3-1.3-.9.2-1.1.8Z"/>
      <path class="cls-10" d="M285.6,173.7h1.5c0,0-1.1.9-1.5,0Z"/>
      <path class="cls-3" d="M282.6,174.9c0,1.5.3,3,.8,4.4-.7.2-1.6,0-2.2-.3l1.4-4.1Z"/>
      <path class="cls-10" d="M278.4,180.6h0c-1.6-.5-2.8-1.8-3.3-3.4,0,0,0-.2.1-.2,0,0,.2,0,.2.1,0,0,0,0,0,0,.5,1.5,1.6,2.6,3.1,3.1,0,0,.1.1.1.2,0,0,0,.1-.2.1h0Z"/>
      <path class="cls-10" d="M277.9,169.9c-.2,0-.4-.2-.4-.4,0-.1,0-.3.2-.3,1-.6,2.2-.6,3.3-.1.2,0,.3.3.2.5,0,.2-.3.3-.5.2,0,0,0,0,0,0-.8-.4-1.8-.3-2.6.1,0,0-.1,0-.2,0Z"/>
      <path class="cls-10" d="M288.8,172.6c-.2,0-.3-.1-.3-.3-.2-.9-.8-1.6-1.7-2-.2,0-.3-.3-.2-.5,0-.2.3-.3.4-.2,0,0,0,0,0,0,1.1.4,1.9,1.4,2.1,2.5,0,.2,0,.4-.3.4,0,0,0,0,0,0h0Z"/>
      <path class="cls-10" d="M279,171.4h1.5c0,0-1.1.9-1.5,0Z"/>
      <path class="cls-13" d="M246.6,182.9c-3.1-.8-12.8,6.6-12.8,6.6l4.1,13.1s10.1-5.6,11.1-9.7c.9-4.3,1.2-9.1-2.3-10Z"/>
      <path class="cls-1" d="M246.6,182.9c-3.1-.8-12.8,6.6-12.8,6.6l4.1,13.1s10.1-5.6,11.1-9.7c.9-4.3,1.2-9.1-2.3-10Z"/>
    </g>
  </g>
  <path class="cls-18" d="M362,99.4h-74.2c-6.6,0-12,5.4-12,12h0v23c0,6.6,5.4,12,12,12h6.2v11.8l11.8-11.8h56.2c6.6,0,12-5.4,12-12v-23c0-6.6-5.4-12-12-12h0Z"/>
  <path class="cls-7" d="M362,99.4h-74.2c-6.6,0-12,5.4-12,12h0v23c0,6.6,5.4,12,12,12h6.2v11.8l11.8-11.8h56.2c6.6,0,12-5.4,12-12v-23c0-6.6-5.4-12-12-12h0Z"/>
  <g class="cls-20">
    <path class="cls-18" d="M289.5,109h70.7c1.5,0,2.8,1.2,2.8,2.8h0c0,1.5-1.2,2.8-2.8,2.8h-70.7c-1.5,0-2.8-1.2-2.8-2.8h0c0-1.5,1.2-2.8,2.8-2.8Z"/>
  </g>
  <g class="cls-20">
    <path class="cls-18" d="M360.2,125.4h-45.3c-1.5,0-2.8-1.2-2.8-2.8h0c0-1.5,1.2-2.8,2.8-2.8h45.3c1.5,0,2.8,1.2,2.8,2.8h0c0,1.5-1.2,2.8-2.8,2.8Z"/>
  </g>
  <g class="cls-20">
    <path class="cls-18" d="M301.5,125.4h-11.9c-1.5,0-2.8-1.2-2.8-2.8h0c0-1.5,1.2-2.8,2.8-2.8h11.9c1.5,0,2.8,1.2,2.8,2.8h0c0,1.5-1.2,2.8-2.7,2.8Z"/>
  </g>
  <g class="cls-20">
    <path class="cls-18" d="M342.6,136.4h-53.1c-1.5,0-2.8-1.2-2.8-2.8h0c0-1.5,1.2-2.8,2.8-2.8h53.1c1.5,0,2.8,1.2,2.8,2.8h0c0,1.5-1.2,2.8-2.8,2.8Z"/>
  </g>
</svg>