<?xml version="1.0" encoding="UTF-8"?>
<svg id="Capa_1" data-name="Capa 1" xmlns="http://www.w3.org/2000/svg" version="1.1" viewBox="0 0 500 500">
  <defs>
    <style>
      .cls-1 {
        fill: #6e6e6e;
      }

      .cls-1, .cls-2, .cls-3, .cls-4, .cls-5, .cls-6, .cls-7 {
        stroke: #263238;
        stroke-linecap: round;
        stroke-linejoin: round;
      }

      .cls-2, .cls-7 {
        fill: none;
      }

      .cls-8 {
        fill: #175070;
      }

      .cls-8, .cls-9, .cls-10 {
        stroke-width: 0px;
      }

      .cls-3 {
        stroke-width: 1px;
      }

      .cls-3, .cls-6 {
        fill: #fff;
      }

      .cls-4 {
        fill: #c9c9c9;
      }

      .cls-9 {
        fill: #ce7a63;
      }

      .cls-10, .cls-5 {
        fill: #263238;
      }

      .cls-7 {
        stroke-width: 2px;
      }
    </style>
  </defs>
  <g id="freepik--Table--inject-228">
    <line class="cls-2" x1="17.3" y1="415.9" x2="482.2" y2="415.9"/>
  </g>
  <path class="cls-8" d="M347.6,324.1c0-9.9-6.6-29.5-15.3-36.6-8.7-7-31.2-13.4-31.2-13.4l-29.4-3.2v-.4l-2.1.2-1.8-.2v.4l-33.9,3.2s-25.6,6.4-35.4,13.4-18.3,23.6-18.3,33.4-.7,55.2-.7,55.2l29.5,2.8,3.9-9.9,4.2,46.8h98.7l3.7-46.8,3.4,9.9h28.9c0,.1-4.3-45-4.3-54.8h0Z"/>
  <path class="cls-5" d="M206.9,357.7s9.4-27.6,9.8-22.7-3.8,34.1-3.8,34.1l-6.4,11.3.4-22.7h0Z"/>
  <path class="cls-5" d="M217.1,415.9s94.2-46.6,90.9-39.1c-3.3,7.5-8.2,13.4-8.2,13.4l15.7-8.5,5.2-38.3-5,72.5h-98.7,0Z"/>
  <path class="cls-9" d="M233.9,274.1s-.2,36.3,6.4,49.3c6.7,13,27.8,28.1,31.3,26,3.5-2.1,24.6-28.5,26-35.2,1.4-6.7-2.2-40.2-2.2-40.2h-61.6,0Z"/>
  <path class="cls-5" d="M247,303l14.9-7-28.3-17.7s1.1,30,2.9,33.5l10.5-8.8h0Z"/>
  <path class="cls-2" d="M239.3,283.3s8.1,24.6,14.1,31.6"/>
  <path class="cls-2" d="M289.9,284.7s-3.9,20-9.5,30.6"/>
  <g>
    <path class="cls-9" d="M202,304c-.7,3.1-2.9,5.3-5,4.8-2-.5-3.1-3.4-2.4-6.5.7-3.1,2.9-5.3,5-4.8,2,.5,3.1,3.4,2.4,6.5Z"/>
    <path class="cls-9" d="M199.1,295.4s3.6-13.5,4.4-15.8,13.3-29.8,13.8-34c.6-4.1,1.4-8.6,2.2-8.3s11.6,18.8,11.6,18.8c0,0-2.2,7.7-4.7,13.8-2.5,6.1-2.8,7.5-2.8,7.5l9.4-10.5s2.5,3,.8,7.2-1.7,1.9-5.2,6.9-5.2,8.6-7.5,10-8.6,6.6-8.6,6.6c0,0-3.3,12.2-3.3,18s.8,71.6,1.4,80.7-7.5,21.8-12.4,23.2c-5,1.4-16.6.3-21.3-8s-.8-27.4.6-32.3c1.4-5,21.6-83.7,21.6-83.7h0Z"/>
    <path class="cls-9" d="M222,243s-.8,14.5-2.1,22.5"/>
    <path class="cls-9" d="M227.4,246.1s-.8,13.4-3.1,19.4"/>
    <path class="cls-9" d="M205.4,276.6s5.8-14.9,6.9-21.8c1.1-6.9,1.7-9.9,4.1-6.9,2.5,3,.8,12.4,0,17.4s0,9.7-.8,16.3c-.8,6.6-2.8,9.4-3.9,10"/>
  </g>
  <g>
    <path class="cls-9" d="M330.3,295.4s-3.6-13.5-4.4-15.8c-.8-2.2-15.4-28.5-16-32.6-.5-4.1-5.5-11.3-6.4-11.1s-5.3,20.2-5.3,20.2c0,0,2.2,7.7,4.7,13.8s2.8,7.5,2.8,7.5l-9.4-10.5s-2.5,3-.8,7.2,1.7,1.9,5.2,6.9,5.2,8.6,7.5,10,8.6,6.6,8.6,6.6c0,0,3.3,12.2,3.3,18s-.8,71.6-1.4,80.7c-.5,9.1,7.5,21.8,12.4,23.2s16.6.3,21.3-8,.8-27.4-.5-32.3-21.5-83.7-21.5-83.7h0Z"/>
    <path class="cls-9" d="M302.3,241.1s5.9,13.9,7.2,22"/>
    <path class="cls-9" d="M301.1,246.1s.8,13.4,3.1,19.4"/>
    <path class="cls-9" d="M322.3,277.4s-6.1-12.2-8.6-14.9-9.1-13.5-11.3-15.5c-2.2-1.9-2.5,4.4-.3,8.6,2.2,4.1,6.4,13.5,6.9,14.4.5.8,2.5,9.4,3,14.9.5,5.5,2.5,9.1,5.8,10.5s4.7,2.2,4.7,2.2"/>
  </g>
  <path class="cls-5" d="M286.2,209.1s9.7-9.3,5.6-19.7c-4.1-10.3-25.5-18.3-37.2-15.5s-15.8,5.5-15.8,5.5l10.3-1.4s-13.1,2.8-17.9,11.4-3.4,12.7-3.4,12.7l5.5-4.8s-1.4,6.5,1.7,11c3.1,4.5,14.5,1.7,18.9-1.7,4.5-3.4,9.3-6.5,17.2-2.4,7.9,4.1,12.9,6.6,15.1,4.9h0Z"/>
  <path class="cls-5" d="M231.2,263.3s-5.4-4.6-5.7-9.2c-.3-4.6,0-5.9,0-5.9,0,0-5.4-4.9-7.3-10.6-1.9-5.7,2.2-17.3,11.6-24.9,9.5-7.6,30-19.2,42.5-15.4,12.5,3.8,13.8,11.9,13.8,11.9,0,0,7.6-3.2,14.6,7.3s7,15.4,5.1,19.5-4.3,7.3-4.3,7.3c0,0,1.6,1.1,0,6.8s-3,8.9-3,8.9l-7.9-19.2-15.4-16-41.1,24.4-3,15.2h0Z"/>
  <path class="cls-9" d="M277,219.4s-30.3,16.2-39,21.4l-8.7,5.1s2.2,31.4,4.9,34.7c2.7,3.2,20.8,16.8,24.9,19.2,4.1,2.4,11.4,3,14.4.8s23-19,24.9-23.5c1.9-4.6-2.7-39.8-2.7-39.8,0,0-13.8-10.6-18.7-17.9h0Z"/>
  <path class="cls-2" d="M261,270s3.5,4.9,7,3c3.5-1.9,3.8-3.5,3.8-3.5"/>
  <path class="cls-2" d="M267.8,281.6s.8-1.9,4.3-4.1"/>
  <path class="cls-7" d="M239.9,252.1s6.5,6.2,16,0"/>
  <path class="cls-7" d="M272.6,252.1s6.5,6.2,16,0"/>
  <path class="cls-10" d="M239.4,245.6s12.2-7.6,16.2-7.3,1.9,3.2,1.9,3.2c0,0-10.6,3.2-12.7,4.3-2.2,1.1-6.8,3.2-5.4-.3Z"/>
  <path class="cls-10" d="M290.6,245.6s-12.2-7.6-16.2-7.3-1.9,3.2-1.9,3.2c0,0,10.6,3.2,12.7,4.3,2.2,1.1,6.8,3.2,5.4-.3Z"/>
  <g>
    <path class="cls-7" d="M231,248.1l.8,10.8s7.9,4.6,17.3,3.5c9.5-1.1,12.5-3,12.5-3l.8-13-31.4,1.6h0Z"/>
    <path class="cls-7" d="M299.4,248.1l-.8,10.8s-7.9,4.6-17.3,3.5c-9.5-1.1-12.5-3-12.5-3l-.8-13,31.4,1.6h0Z"/>
    <line class="cls-7" x1="262.4" y1="246.5" x2="268" y2="246.5"/>
    <path class="cls-7" d="M262.6,250.5s2.4-2.2,5.4,0"/>
  </g>
  <path class="cls-5" d="M198.3,298.5c-.5,1.8-1.1,4.4-1.9,7.5l13.9,1.6c.5-2.8,1.2-5.6,1.7-7.5l-13.7-1.6h0Z"/>
  <g id="freepik--Lamp--inject-228">
    <g>
      <path class="cls-6" d="M76.9,425.4c.5,0,.9,0,1.4-.3,1.8-.8,2.7-2.8,1.9-4.6l-44.2-104.5,60.3-68.4c1.3-1.5,1.2-3.7-.3-5-1.5-1.3-3.7-1.2-5,.3l-61.8,70.1c-.9,1-1.1,2.5-.6,3.7l45.1,106.6c.6,1.4,1.9,2.2,3.3,2.2h0Z"/>
      <g>
        <path class="cls-6" d="M106.8,299.3c-.2-.2-.4-.4-.7-.6-15.6-15.6-19-37.4-7.7-48.7s33.1-7.9,48.7,7.7c.2.2.4.5.6.7,0,0-41,41-41,41Z"/>
        <path class="cls-3" d="M108.6,245l-15.2,15.2-12.1-12.1c-1.4-1.4-1.4-3.8,0-5.2l10-10c1.4-1.4,3.8-1.4,5.2,0l12.1,12.1h0Z"/>
      </g>
      <path class="cls-6" d="M27.8,315.5c0-3.8,3-6.8,6.8-6.8s6.8,3,6.8,6.8-3,6.8-6.8,6.8-6.8-3-6.8-6.8Z"/>
      <path class="cls-6" d="M34.7,420h76.3c4.9,0,8.9,4,8.9,9H25.8c0-5,4-9,8.9-9Z"/>
    </g>
  </g>
  <path class="cls-6" d="M468.1,417.4s-3.8,4.4,0,9.6h-68.6l-2-5.2,2.6-4.6,68,.3h0Z"/>
  <path class="cls-5" d="M399.5,426.8v-8.8h64.4v-2.2h-85.7c-3.6,0-6.6,2.9-6.6,6.6s2.9,6.6,6.6,6.6h85.7v-2.2h-64.4Z"/>
  <path class="cls-5" d="M399.5,422.4h0c0-2.4,2-4.4,4.4-4.4h66.8v-2.2h-68c-3.5,0-6.3,2.8-6.3,6.3h0c0,3.8,3.1,6.8,6.8,6.8h67.5v-2.2h-66.8c-2.4,0-4.4-2-4.4-4.4h0Z"/>
  <path class="cls-6" d="M468.9,390.5s-3.8,4.4,0,9.6h-68.6l-2-5.2,2.6-4.6,68,.3h0Z"/>
  <path class="cls-8" d="M400.3,399.8v-8.8h64.4v-2.2h-85.7c-3.6,0-6.6,2.9-6.6,6.6s2.9,6.6,6.6,6.6h85.7v-2.2h-64.4,0Z"/>
  <path class="cls-8" d="M400.3,395.4h0c0-2.4,2-4.4,4.4-4.4h66.8v-2.2h-68c-3.5,0-6.3,2.8-6.3,6.3h0c0,3.8,3.1,6.8,6.8,6.8h67.5v-2.2h-66.8c-2.4,0-4.4-2-4.4-4.4h0Z"/>
  <path class="cls-6" d="M463.4,404.4s-3.8,4.4,0,9.6h-68.6l-2-5.2,2.6-4.6,68,.3h0Z"/>
  <path class="cls-5" d="M394.9,413.7v-8.8h64.4v-2.2h-85.7c-3.6,0-6.6,2.9-6.6,6.6s2.9,6.6,6.6,6.6h85.7v-2.2h-64.4,0Z"/>
  <path class="cls-5" d="M394.9,409.3h0c0-2.4,2-4.4,4.4-4.4h66.8v-2.2h-68c-3.5,0-6.3,2.8-6.3,6.3h0c0,3.8,3.1,6.8,6.8,6.8h67.5v-2.2h-66.8c-2.4,0-4.4-2-4.4-4.4h0Z"/>
  <g>
    <path class="cls-6" d="M369.2,377.9s3.8,4.4,0,9.6h68.6l2-5.2-2.6-4.6-68,.3h0Z"/>
    <path class="cls-4" d="M437.8,387.2v-8.8h-64.4v-2.2h85.7c3.6,0,6.6,2.9,6.6,6.6s-2.9,6.6-6.6,6.6h-85.7v-2.2h64.4,0Z"/>
    <path class="cls-4" d="M437.8,382.9h0c0-2.4-2-4.4-4.4-4.4h-66.8v-2.2h68c3.5,0,6.3,2.8,6.3,6.3h0c0,3.8-3.1,6.8-6.8,6.8h-67.5v-2.2h66.8c2.4,0,4.4-2,4.4-4.4h0Z"/>
  </g>
  <path class="cls-6" d="M373.5,365.2s3.8,4.4,0,9.6h68.6l2-5.2-2.6-4.6-68,.3h0Z"/>
  <path class="cls-8" d="M442,374.6v-8.8h-64.4v-2.2h85.7c3.6,0,6.6,2.9,6.6,6.6s-2.9,6.6-6.6,6.6h-85.7v-2.2h64.4Z"/>
  <path class="cls-8" d="M442,370.2h0c0-2.4-2-4.4-4.4-4.4h-66.8v-2.2h68c3.5,0,6.3,2.8,6.3,6.3h0c0,3.8-3.1,6.8-6.8,6.8h-67.5v-2.2h66.8c2.4,0,4.4-2,4.4-4.4h0Z"/>
  <path class="cls-6" d="M363.4,352.2s3.8,4.4,0,9.6h68.6l2-5.2-2.6-4.6-68,.3h0Z"/>
  <path class="cls-5" d="M431.9,361.5v-8.8h-64.4v-2.2h85.7c3.6,0,6.6,2.9,6.6,6.6s-2.9,6.6-6.6,6.6h-85.7v-2.2h64.4,0Z"/>
  <path class="cls-4" d="M431.9,357.1h0c0-2.4-2-4.4-4.4-4.4h-66.8v-2.2h68c3.5,0,6.3,2.8,6.3,6.3h0c0,3.8-3.1,6.8-6.8,6.8h-67.5v-2.2h66.8c2.4,0,4.4-2,4.4-4.4h0Z"/>
  <path class="cls-6" d="M375.1,339.3s3.8,4.4,0,9.6h68.6l2-5.2-2.6-4.6-68,.3h0Z"/>
  <path class="cls-8" d="M443.6,348.6v-8.8h-64.4v-2.2h85.7c3.6,0,6.6,2.9,6.6,6.6s-2.9,6.6-6.6,6.6h-85.7v-2.2h64.4,0Z"/>
  <path class="cls-8" d="M443.6,344.3h0c0-2.4-2-4.4-4.4-4.4h-66.8v-2.2h68c3.5,0,6.3,2.8,6.3,6.3h0c0,3.8-3.1,6.8-6.8,6.8h-67.5v-2.2h66.8c2.4,0,4.4-2,4.4-4.4h0Z"/>
  <g>
    <path class="cls-6" d="M365,326.2s3.8,4.4,0,9.6h68.6l2-5.2-2.6-4.6-68,.3h0Z"/>
    <path class="cls-4" d="M433.5,335.5v-8.8h-64.4v-2.2h85.7c3.6,0,6.6,2.9,6.6,6.6s-2.9,6.6-6.6,6.6h-85.7v-2.2h64.4,0Z"/>
    <path class="cls-4" d="M433.5,331.2h0c0-2.4-2-4.4-4.4-4.4h-66.8v-2.2h68c3.5,0,6.3,2.8,6.3,6.3h0c0,3.8-3.1,6.8-6.8,6.8h-67.5v-2.2h66.8c2.4,0,4.4-2,4.4-4.4h0Z"/>
  </g>
  <g id="freepik--Book_1--inject-228" data-name="freepik--Book 1--inject-228">
    <g>
      <path class="cls-5" d="M332.4,423.8c-18.6-10.8-72.3-15.7-72.3-15.7,0,0-53.7,4.9-72.3,15.7,0,0-2.6,1.2-1.7,1.9s.4.7,3.1-.2,35.1-10,41.6-10.2,17.3,7.8,19.1,9.3-.2,3.1,1.8,4,8.5,0,8.5,0c0,0,6.5.9,8.5,0s0-2.5,1.8-4c1.8-1.6,12.7-9.6,19.1-9.3,6.5.2,38.9,9.3,41.6,10.2s2.2.9,3.1.2c.9-.7-1.7-1.9-1.7-1.9h0Z"/>
      <polygon class="cls-1" points="252.3 424.4 268 424.4 260.3 413.7 252.3 424.4"/>
      <g>
        <g>
          <path class="cls-6" d="M260,403.4s-8.6-10.2-22.1-9.4-34.2,9.7-41.1,13c-6.9,3.3-13,4.4-13,4.4l3.9,12.4s26.8-8.5,40-10.2c13.2-1.7,24.6,10.8,24.6,10.8l7.7-11.6v-9.4h0Z"/>
          <path class="cls-2" d="M254.5,421s-7.2-9.9-15.2-12.1c-8-2.2-12.1-.8-12.1-.8"/>
          <path class="cls-2" d="M236,404.5s6.9.8,13,4.7"/>
          <line class="cls-2" x1="252.8" y1="411.4" x2="257.5" y2="416.4"/>
          <path class="cls-2" d="M244.8,401.7s10.2,2.8,15.2,11"/>
          <path class="cls-2" d="M238.2,397.6s6.9-1.1,11.9,2.8"/>
          <line class="cls-2" x1="186.3" y1="416.4" x2="199.3" y2="411.9"/>
          <line class="cls-2" x1="193.5" y1="416.9" x2="207.6" y2="412.5"/>
        </g>
        <g>
          <path class="cls-6" d="M260.3,403.4s8.5-10.2,22.1-9.4c13.5.8,34.2,9.7,41.1,13,6.9,3.3,13,4.4,13,4.4l-3.9,12.4s-26.8-8.5-40-10.2c-13.2-1.7-24.6,10.8-24.6,10.8l-7.7-11.6v-9.4h0Z"/>
          <path class="cls-2" d="M265.8,421s7.2-9.9,15.2-12.1c8-2.2,12.1-.8,12.1-.8"/>
          <path class="cls-2" d="M284.3,404.5s-6.9.8-13,4.7"/>
          <line class="cls-2" x1="267.5" y1="411.4" x2="262.8" y2="416.4"/>
          <path class="cls-2" d="M275.5,401.7s-10.2,2.8-15.2,11"/>
          <path class="cls-2" d="M282.1,397.6s-6.9-1.1-11.9,2.8"/>
          <line class="cls-2" x1="334" y1="416.4" x2="321" y2="411.9"/>
          <line class="cls-2" x1="326.8" y1="416.9" x2="312.7" y2="412.5"/>
        </g>
      </g>
    </g>
  </g>
  <g id="freepik--Device--inject-228">
    <g>
      <polygon class="cls-4" points="170.4 429 49.2 429 34 342.2 155.2 342.2 170.4 429"/>
      <polygon class="cls-4" points="170.4 429 49.2 429 34 342.2 155.2 342.2 170.4 429"/>
      <polygon class="cls-4" points="166.6 429 45.4 429 30.1 342.2 151.3 342.2 166.6 429"/>
      <polygon class="cls-5" points="48.5 424.9 49.2 429 170.4 429 169.7 424.9 48.5 424.9"/>
      <rect class="cls-4" x="163.1" y="425.4" width="72.6" height="3.6"/>
    </g>
  </g>
</svg>