<?xml version="1.0" encoding="UTF-8"?>
<svg id="Capa_1" data-name="Capa 1" xmlns="http://www.w3.org/2000/svg" version="1.1" viewBox="0 0 500 500">
  <defs>
    <style>
      .cls-1 {
        opacity: .3;
      }

      .cls-1, .cls-2 {
        fill: #000;
      }

      .cls-1, .cls-2, .cls-3, .cls-4, .cls-5, .cls-6, .cls-7, .cls-8, .cls-9, .cls-10, .cls-11 {
        stroke-width: 0px;
      }

      .cls-1, .cls-2, .cls-12, .cls-8, .cls-11 {
        isolation: isolate;
      }

      .cls-2 {
        opacity: .1;
      }

      .cls-3 {
        fill: #a02724;
      }

      .cls-4 {
        fill: #b55b52;
      }

      .cls-5 {
        fill: #f5f5f5;
      }

      .cls-6 {
        fill: #175070;
      }

      .cls-12 {
        opacity: .7;
      }

      .cls-12, .cls-13 {
        stroke: #fff;
        stroke-miterlimit: 10;
      }

      .cls-12, .cls-11 {
        fill: #8fbedc;
      }

      .cls-7 {
        fill: #263238;
      }

      .cls-8 {
        fill: #fff;
        opacity: .8;
      }

      .cls-9 {
        fill: #407bff;
      }

      .cls-10 {
        fill: #fafafa;
      }

      .cls-13 {
        stroke-width: .5px;
      }

      .cls-13, .cls-14 {
        fill: none;
      }

      .cls-14 {
        stroke: #fafafa;
        stroke-miterlimit: 10;
        stroke-width: 1px;
      }
    </style>
  </defs>
  <g id="freepik--Shadow--inject-161">
    <g id="freepik--Shadow--inject-58--inject-161">
      <ellipse id="freepik--path--inject-58--inject-161" class="cls-5" cx="250" cy="449.4" rx="193.9" ry="11.3"/>
    </g>
  </g>
  <path class="cls-2" d="M233.6,179.5c-2.7-.7-2.7-4.2-2.7-4.2l2.6.5c-.1,1.2,0,2.4.2,3.7Z"/>
  <path class="cls-12" d="M374.6,83.2v144.2c0,4.5-3.6,8.1-8.1,8.1h-217.9c-4.4,0-8-3.6-8-8.1V83.2c0-4.4,3.6-8,8-8.1h217.9c4.5,0,8.1,3.6,8.1,8.1Z"/>
  <circle class="cls-9" cx="360.7" cy="87.9" r="2.2"/>
  <path class="cls-9" d="M350.3,87.9c0,1.2-1,2.2-2.2,2.2-1.2,0-2.2-1-2.2-2.2,0-1.2,1-2.2,2.2-2.2,0,0,0,0,0,0,1.2,0,2.2,1,2.2,2.2Z"/>
  <path class="cls-9" d="M337.8,87.9c0,1.2-1,2.2-2.2,2.2-1.2,0-2.2-1-2.2-2.2,0-1.2,1-2.2,2.2-2.2,0,0,0,0,0,0,1.2,0,2.2,1,2.2,2.2Z"/>
  <path class="cls-9" d="M357.1,115.3v144.2c0,4.4-3.6,8-8,8h-217.9c-4.4,0-8-3.6-8.1-8V115.3c0-4.4,3.6-8.1,8.1-8.1h217.9c4.4,0,8,3.6,8,8.1Z"/>
  <path class="cls-8" d="M357.1,115.3v144.2c0,4.4-3.6,8-8,8h-217.9c-4.4,0-8-3.6-8.1-8V115.3c0-4.4,3.6-8.1,8.1-8.1h217.9c4.4,0,8,3.6,8,8.1Z"/>
  <rect class="cls-9" x="304.9" y="124.2" width="52.2" height="131.9"/>
  <rect class="cls-12" x="304.9" y="124.2" width="52.2" height="131.9"/>
  <rect class="cls-10" x="304.9" y="163.8" width="52.2" height="1.7"/>
  <rect class="cls-10" x="304.9" y="205.2" width="52.2" height="1.7"/>
  <rect class="cls-10" x="304.9" y="245.9" width="52.2" height="1.7"/>
  <polygon class="cls-10" points="327.7 175.3 327.7 195 342.6 185.2 327.7 175.3"/>
  <polygon class="cls-10" points="327.7 216.5 327.7 236.3 342.6 226.4 327.7 216.5"/>
  <polygon class="cls-10" points="327.7 133.4 327.7 153.1 342.6 143.2 327.7 133.4"/>
  <path class="cls-4" d="M199.7,205.2s-13.3,19.9-17.5,23.8c0,0-22.4,2-31.6-4.3l-2.3,5.7s21.2,12,35.6,9.1,25-30.7,25-30.7l-9.2-3.6Z"/>
  <path class="cls-4" d="M264.5,193.3s12.8,3.5,20.7,4.2c0,0,6-13.9,7-26.6l4.5.2s4.2,24.6-6.8,34.6c-7.5,6.9-32.7-5.9-32.7-5.9l7.2-6.6Z"/>
  <path class="cls-7" d="M228.6,139s-17.3-1.7-19.1,15.9c-1,10.9.8,21.9,5.1,32,0,0,10.4,21.3,23.1,18.3s23.4-9.8,21.2-21.3-6.4-11-6.3-27-14.9-25.3-24.1-17.9Z"/>
  <path class="cls-4" d="M247.5,164.2c-1.8,8.8-5.8,12.4-14,11.7-.1,1.2,0,2.4.2,3.6.4,3,2.7,5.3,5.7,5.7,7,1.2,3.2,10.2,3.2,10.2l-7,3.4-9.2-5.3-7-7.5h2.4s4.7-7.2,0-19.2c-2.1-1.2-3.5-3.4-3.6-5.9-.2-4,3.9-4.2,5.5-2.7,0,0,7.1-3.1,6.1-15.1,0,0,7,5.3,16,3.7,0,0,3.6,8.5,1.8,17.3Z"/>
  <path class="cls-3" d="M241.1,156.9v6.2c1.1.4,2.2.3,3.2-.2l-3.2-6Z"/>
  <path class="cls-7" d="M231.6,149.9c0,0-.1,0-.2,0-.2,0-.2-.3-.1-.5,0,0,0,0,0,0,1-1.5,2.8-2.1,4.4-1.4.2,0,.3.2.2.4,0,0,0,0,0,0,0,.2-.3.3-.4.2-1.3-.5-2.8,0-3.6,1.1,0,0-.2.1-.3.1Z"/>
  <path class="cls-7" d="M247.1,151.8c0,0-.2,0-.2,0-1-.9-2.7-.2-2.8-.2-.2,0-.4,0-.4-.2,0-.2,0-.4.2-.4,0,0,0,0,0,0,0,0,2.2-.8,3.5.4.1.1.1.3,0,.5,0,0-.1.1-.2.1Z"/>
  <path class="cls-7" d="M238.4,166h0c-2.4,0-4.6-1.1-5.9-3.1,0-.1,0-.3.2-.3.1,0,.2,0,.3,0,1.2,1.8,3.3,2.9,5.4,2.8.1,0,.2.1.2.2s-.1.3-.3.3h0Z"/>
  <path class="cls-7" d="M236.6,155.8c0,.7-.4,1.3-.9,1.4s-.9-.6-.9-1.3.4-1.3.9-1.4.9.6.9,1.3Z"/>
  <path class="cls-7" d="M245.5,155.9c0,.7-.4,1.3-.9,1.4s-.9-.6-.9-1.3.4-1.3.9-1.4.9.6.9,1.3Z"/>
  <path class="cls-7" d="M235.6,154.5l2.3-.6s-.4,1.2-2.3.6Z"/>
  <path class="cls-7" d="M244.6,154.6l1.7-.2c-.2.5-.8.7-1.3.5-.1,0-.3-.1-.3-.3Z"/>
  <path class="cls-11" d="M268.8,192.9l-7.8,17.2-4.2-1.5s.4,31.3-3,47.4h-40.7l-2.3-42.7-2.1,4.5-15-8.4s4.1-17,10.6-20c3.1-1.4,9.7-2.5,16.5-3.2,6.2-.7,12.4-1,18.6-.9h1.8c9.7.4,19.2,3,27.7,7.7Z"/>
  <path class="cls-4" d="M292.2,170.9c-1.5-2.2-2.6-4.7-3-7.4-.4-2.9-.2-5.8.8-8.5l8.1-.3,1,7.1c.4,3.3-.4,6.6-2.3,9.3l-4.5-.2Z"/>
  <path class="cls-4" d="M150.6,224.7l-4.2-7.5-5.1-1.8-3.6,6.8,3.2,4.5s4.3,3.6,7.4,3.7l2.3-5.7Z"/>
  <path class="cls-4" d="M241.1,185.3c0,10.8-6.8,22.6-6.8,22.6-6-5.8-12-18.2-13.6-21.7,6.2-.7,12.4-1,18.6-.9,0,0,.7,0,1.8,0Z"/>
  <polygon class="cls-2" points="208.7 217.8 210.8 206.2 210.8 213.3 208.7 217.8"/>
  <polygon class="cls-2" points="261 210.2 254.3 205.2 256.9 208.7 261 210.2"/>
  <polygon class="cls-4" points="216.8 396.3 226.4 406.8 204.1 428 196.1 422.3 216.8 396.3"/>
  <path class="cls-7" d="M206,427.5c.5,3.2,1.3,6.9,5.9,13.2,1,1.4-1.7,4-4.7,1.3s-7.3-7.2-9.5-9.2c-3.6-3.3-5-4.4-7.9-6.9,0,0,0,0-.1-.1-.6-.6-.6-1.6,0-2.1h0s6.3-5.1,6.3-5.1c.3-.2.7-.2,1,0l8.1,7.5c.4.4.7.9.8,1.5Z"/>
  <path class="cls-9" d="M204.8,427.3c0,0,0-.2,0-.3,0,0,.1,0,.2,0,.5.1,4.6,1.4,5,2.7,0,.2,0,.5-.1.7-.2.3-.6.5-1,.5-.8-.2-1.5-.6-2.1-1.2-.7-.7-1.4-1.5-2-2.4ZM205.6,427.6c1.4,1.7,2.6,2.8,3.4,2.8.3,0,.5-.1.7-.3,0,0,0-.2,0-.3,0-.1-.2-.3-.3-.4-1.1-.8-2.4-1.4-3.8-1.8Z"/>
  <path class="cls-9" d="M204.7,427.2c0,0,0-.2,0-.2,0,0,1.9-1.7,3.4-1.6.5,0,.9.3,1.2.6.4.5.4.8.2,1-.6.9-3.6.8-4.8.4h0c0,0,0-.1,0-.1ZM208.2,425.8c-1,0-2,.5-2.8,1.2,1.3.3,3.5.2,3.8-.3,0,0,.1-.2-.2-.5h-.1c-.2-.3-.5-.4-.8-.4h0Z"/>
  <polygon class="cls-4" points="212.4 415.4 225.5 415.2 223.7 448.1 214.2 447.8 212.4 415.4"/>
  <path class="cls-7" d="M225.9,445.7c2.7,2.1,4,4.3,11.5,5.9,1.7.4,1.7,4.3-2.2,4.2s-8.2-.4-11-.4c-4.6,0-6.4.2-10.1.2h0c-.9,0-1.6-.8-1.6-1.7,0,0,0,0,0,0l.6-8.3c0-.4.3-.7.7-.6h10.6c.6,0,1.1.3,1.5.7Z"/>
  <path class="cls-9" d="M219.8,244.2c-1.1,20.4,25.7,81.6,28.7,103-9.3,21.5-33.5,48.9-33.5,48.9l11.5,12.5s40.2-35.8,42.3-60.8c1.7-21.4-13.4-101.6-13.4-101.6l-35.7-2.1Z"/>
  <path class="cls-7" d="M219.8,244.2c-1.1,20.4,25.7,81.6,28.7,103-9.3,21.5-33.5,48.9-33.5,48.9l11.5,12.5s40.2-35.8,42.3-60.8c1.7-21.4-13.4-101.6-13.4-101.6l-35.7-2.1Z"/>
  <polygon class="cls-9" points="215.3 393.2 230.3 407.5 226.3 410 212.5 397.7 215.3 393.2"/>
  <path class="cls-1" d="M228.4,283c6.3,19.5,14.4,40.6,18.2,55.1.7-15.7.2-43.8-10.9-59-5.1-7.2-7.2-3.6-7.3,3.9Z"/>
  <path class="cls-9" d="M212.9,244.5c-7.8,21.5-1.7,70.1-1.3,104.9-2.3,26.2.8,66,.8,66l14.1.6s4.2-46.9,7.1-76.2c2.5-24.7,11.2-94,11.2-94l-32-1.2Z"/>
  <path class="cls-7" d="M212.5,243.7c-7.8,21.5-1.3,70.8-.9,105.6-2.3,26.2.8,66,.8,66l14.1.6s4.2-46.9,7.1-76.2c2.5-24.7,11.2-94,11.2-94l-32.4-2Z"/>
  <polygon class="cls-11" points="210.3 411.9 228.6 412.4 227.5 417.5 211.3 417.9 210.3 411.9"/>
  <path class="cls-9" d="M229.4,446.3c-.8.8-3,.4-4.3.1,0,0-.2,0-.2-.2,0,0,0-.2,0-.2.3-.2,3-2,4.2-1.5.3.1.4.4.5.6,0,.3,0,.7-.2,1,0,0,0,.1,0,.2ZM225.8,446.1c1.7.3,2.9.3,3.3-.1.2-.2.3-.5.2-.8,0-.1,0-.2-.2-.3-.6-.3-2.2.5-3.3,1.2h0Z"/>
  <path class="cls-9" d="M225.3,446.4c0,0-.1,0-.2,0,0,0-.1-.1-.1-.2,0-.1-.2-2.8.8-3.7.2-.2.6-.3.9-.3.4,0,.7.3.8.6,0,1-.4,1.9-1.1,2.5-.3.4-.7.8-1.1,1ZM225.4,445.8c.9-.7,1.8-2.2,1.6-2.9,0-.2-.2-.3-.4-.3-.2,0-.4,0-.6.2h0c-.5,1-.7,2-.6,3h0Z"/>
  <rect class="cls-10" x="218.4" y="183.8" width="3.4" height="20.3"/>
  <rect class="cls-10" x="210.3" y="183.8" width="3.4" height="20.3"/>
  <circle class="cls-14" cx="215.4" cy="194.8" r="16.5"/>
  <path class="cls-6" d="M357.1,115.3v8.9H123.1v-8.9c0-4.4,3.6-8.1,8.1-8.1h217.9c4.4,0,8,3.6,8,8.1Z"/>
  <path class="cls-6" d="M357.1,256v3.4c0,4.4-3.6,8-8,8h-217.9c-4.4,0-8-3.6-8.1-8v-3.4h234Z"/>
  <path class="cls-13" d="M169.4,120.1h-34.2c-2,0-3.7-1.7-3.7-3.7h0c0-2,1.7-3.7,3.7-3.7h34.2c2,0,3.7,1.7,3.7,3.7h0c0,2-1.7,3.7-3.7,3.7Z"/>
  <path class="cls-13" d="M187.9,120.1h-5c-2,0-3.7-1.7-3.7-3.7h0c0-2,1.7-3.7,3.7-3.7h5c2,0,3.7,1.7,3.7,3.7h0c0,2-1.7,3.7-3.7,3.7Z"/>
  <rect class="cls-13" x="128.6" y="128.7" width="171.4" height="123.5" rx="15" ry="15"/>
  <rect class="cls-9" x="112.6" y="139.4" width="76.9" height="38" rx="8.3" ry="8.3"/>
  <path class="cls-12" d="M192.5,145.9v25c0,3.6-2.9,6.5-6.4,6.5,0,0,0,0,0,0h-23.2c-7,2.4-2.6,12.1-2.5,12.5-1.3-.5-2.6-1.1-3.7-2-5-4-4.3-10.4-4.3-10.4h-30.4c-3.6,0-6.5-2.9-6.5-6.5h0v-25c0-3.6,2.9-6.5,6.5-6.5h64c3.6,0,6.4,2.9,6.5,6.4Z"/>
  <path class="cls-6" d="M189.5,145.9v25c0,3.6-2.9,6.5-6.4,6.5,0,0,0,0,0,0h-23.1c-5.1,1.8-4.2,7.4-3.2,10.4-5-4-4.3-10.4-4.3-10.4h-33.3c-3.6,0-6.5-2.9-6.5-6.5,0,0,0,0,0,0v-25c0-3.6,2.9-6.5,6.5-6.5h63.9c3.6,0,6.5,2.9,6.5,6.4h0Z"/>
  <rect class="cls-9" x="118.2" y="145.4" width="65.3" height="3.5"/>
  <rect class="cls-9" x="118.2" y="151.8" width="65.3" height="3.5"/>
  <rect class="cls-9" x="118.2" y="158.1" width="65.3" height="3.5"/>
  <rect class="cls-10" x="118.2" y="145.4" width="65.3" height="3.5"/>
  <rect class="cls-10" x="118.2" y="151.8" width="65.3" height="3.5"/>
  <rect class="cls-10" x="118.2" y="158.1" width="65.3" height="3.5"/>
</svg>